<svg width="88" height="24" viewBox="0 0 88 24" fill="none" xmlns="http://www.w3.org/2000/svg">
<path d="M32.44 8.44024C32.44 6.57358 33.4 5.64024 35.32 5.64024H39C40.92 5.64024 41.88 6.57358 41.88 8.44024V9.08024C41.88 9.24024 41.8 9.32024 41.64 9.32024H40.6C40.44 9.32024 40.36 9.24024 40.36 9.08024V8.44024C40.36 7.53358 39.9067 7.08024 39 7.08024H35.32C34.4133 7.08024 33.96 7.53358 33.96 8.44024V14.3602C33.96 15.2669 34.4133 15.7202 35.32 15.7202H39C39.9067 15.7202 40.36 15.2669 40.36 14.3602V13.7202C40.36 13.5602 40.44 13.4802 40.6 13.4802H41.64C41.8 13.4802 41.88 13.5602 41.88 13.7202V14.3602C41.88 16.2269 40.92 17.1602 39 17.1602H35.32C33.4 17.1602 32.44 16.2269 32.44 14.3602V8.44024ZM47.44 13.3202H45.44V16.7602C45.44 16.9202 45.36 17.0002 45.2 17.0002H44.32C44.16 17.0002 44.08 16.9202 44.08 16.7602V9.08024C44.08 8.92024 44.16 8.84024 44.32 8.84024H45.2C45.36 8.84024 45.44 8.92024 45.44 9.08024V12.0402H47.44L49.04 9.08024C49.0827 8.99491 49.1307 8.93624 49.184 8.90424C49.2373 8.86158 49.3227 8.84024 49.44 8.84024H50.4C50.5813 8.84024 50.6347 8.92024 50.56 9.08024L48.56 12.6802L50.8 16.7602C50.8747 16.9202 50.8213 17.0002 50.64 17.0002H49.68C49.5627 17.0002 49.4773 16.9842 49.424 16.9522C49.3707 16.9096 49.3227 16.8456 49.28 16.7602L47.44 13.3202ZM56.6394 15.7202C57.002 15.7202 57.29 15.6136 57.5034 15.4002C57.7274 15.1762 57.8394 14.8829 57.8394 14.5202V11.1602C57.8394 10.7976 57.7274 10.5096 57.5034 10.2962C57.29 10.0722 57.002 9.96024 56.6394 9.96024H55.2794C54.7994 9.96024 54.3994 10.1202 54.0794 10.4402C53.7594 10.7602 53.5994 11.1602 53.5994 11.6402V15.7202H56.6394ZM53.5994 17.0002V19.8002C53.5994 19.9602 53.5194 20.0402 53.3594 20.0402H52.4794C52.3194 20.0402 52.2394 19.9602 52.2394 19.8002V9.08024C52.2394 8.92024 52.3194 8.84024 52.4794 8.84024H53.3594C53.5194 8.84024 53.5994 8.92024 53.5994 9.08024V9.64024H53.6794C53.7647 9.45891 53.8874 9.29891 54.0474 9.16024C54.186 9.04291 54.3674 8.93624 54.5914 8.84024C54.8154 8.73358 55.098 8.68024 55.4394 8.68024H56.6394C57.482 8.68024 58.1167 8.89358 58.5434 9.32024C58.9807 9.74691 59.1994 10.3602 59.1994 11.1602V14.5202C59.1994 15.3202 58.9807 15.9336 58.5434 16.3602C58.1167 16.7869 57.482 17.0002 56.6394 17.0002H53.5994ZM65.2387 15.7202C65.5587 15.7202 65.8094 15.6296 65.9907 15.4482C66.1827 15.2562 66.2787 15.0002 66.2787 14.6802V13.8802C66.2787 13.5602 66.1827 13.3096 65.9907 13.1282C65.8094 12.9362 65.5587 12.8402 65.2387 12.8402H62.7587V15.7202H65.2387ZM61.6387 17.0002C61.4787 17.0002 61.3987 16.9202 61.3987 16.7602V9.08024C61.3987 8.92024 61.4787 8.84024 61.6387 8.84024H62.5187C62.6787 8.84024 62.7587 8.92024 62.7587 9.08024V11.5602H65.2387C66.8388 11.5602 67.6388 12.3336 67.6388 13.8802V14.6802C67.6388 16.2269 66.8388 17.0002 65.2387 17.0002H61.6387ZM70.3588 16.7602C70.3588 16.9202 70.2788 17.0002 70.1187 17.0002H69.2388C69.0787 17.0002 68.9987 16.9202 68.9987 16.7602V9.08024C68.9987 8.92024 69.0787 8.84024 69.2388 8.84024H70.1187C70.2788 8.84024 70.3588 8.92024 70.3588 9.08024V16.7602ZM74.5544 17.0002C74.3944 17.0002 74.3144 16.9202 74.3144 16.7602V10.1202H71.8344C71.6744 10.1202 71.5944 10.0402 71.5944 9.88024V9.08024C71.5944 8.92024 71.6744 8.84024 71.8344 8.84024H78.1544C78.3144 8.84024 78.3944 8.92024 78.3944 9.08024V9.88024C78.3944 10.0402 78.3144 10.1202 78.1544 10.1202H75.6744V16.7602C75.6744 16.9202 75.5944 17.0002 75.4344 17.0002H74.5544ZM83.7994 15.7202C84.1194 15.7202 84.37 15.6296 84.5514 15.4482C84.7434 15.2562 84.8394 15.0002 84.8394 14.6802V13.8802C84.8394 13.5602 84.7434 13.3096 84.5514 13.1282C84.37 12.9362 84.1194 12.8402 83.7994 12.8402H80.9994V15.7202H83.7994ZM79.8794 17.0002C79.7194 17.0002 79.6394 16.9202 79.6394 16.7602V9.08024C79.6394 8.92024 79.7194 8.84024 79.8794 8.84024H80.7594C80.9194 8.84024 80.9994 8.92024 80.9994 9.08024V11.5602H83.7994C85.3994 11.5602 86.1994 12.3336 86.1994 13.8802V14.6802C86.1994 16.2269 85.3994 17.0002 83.7994 17.0002H79.8794Z" fill="#1B1C21"/>
<path fill-rule="evenodd" clip-rule="evenodd" d="M9.49992 16.4999L11.9999 13.9999L14.4999 16.4999C14.7761 16.7761 15.2238 16.7761 15.4999 16.4999C15.7761 16.2238 15.7761 15.7761 15.4999 15.4999L12.707 12.707C12.3165 12.3165 11.6833 12.3165 11.2928 12.707L8.49992 15.4999C8.22378 15.7761 8.22378 16.2238 8.49992 16.4999C8.77607 16.7761 9.22378 16.7761 9.49992 16.4999ZM9.49992 10.4999L11.9999 7.99992L14.4999 10.4999C14.7761 10.7761 15.2238 10.7761 15.4999 10.4999C15.7761 10.2238 15.7761 9.77607 15.4999 9.49992L12.707 6.70703C12.3165 6.31651 11.6833 6.31651 11.2928 6.70703L8.49992 9.49993C8.22378 9.77607 8.22378 10.2238 8.49992 10.4999C8.77607 10.7761 9.22378 10.7761 9.49992 10.4999Z" fill="#41F6D7"/>
</svg>
